<?xml version="1.0" encoding="UTF-8"?>
<svg id="_1500_x_1500_px_Logo_1" data-name="1500 x 1500 px Logo 1" xmlns="http://www.w3.org/2000/svg" viewBox="0 0 1500 1500">
  <defs>
    <style>
      .cls-1 {
        fill: #5c7ee5;
      }

      .cls-2 {
        fill: #becbf5;
      }

      .cls-3 {
        fill: #455fac;
      }
    </style>
  </defs>
  <g id="Text-6" data-name="Text">
    <g>
      <polygon class="cls-3" points="1097.88 1270.46 933.87 1365.86 751.47 1472 575.28 1372.01 575.28 1371.38 574.72 1371.7 393.26 1268.76 393.26 1268.26 392.13 442.94 574.15 547.19 575.03 1162.25 575.03 1162.56 575.28 1162.37 757.12 1265.62 1097.63 1067.53 1097.88 1270.46"/>
      <polygon class="cls-1" points="32.46 630.05 34.18 440.31 36.06 229.29 212 128.86 212.54 129.18 212.55 128.53 393.72 25.08 394.15 25.34 1104.34 445.8 921.75 549.07 392.48 235.76 392.21 235.6 392.25 235.91 210.62 339.53 207.06 733.45 32.46 630.05"/>
      <polygon class="cls-2" points="1118.11 31.36 1281.84 127.24 1463.97 233.85 1463.56 436.43 1463.01 436.74 1463.56 437.08 1463.18 645.7 1462.75 645.95 744.7 1052.84 745.95 843.08 1281.04 539.82 1281.31 539.66 1281.03 539.54 1281.5 330.43 941.55 131.38 1118.11 31.36"/>
    </g>
  </g>
</svg>